<?xml version="1.0" encoding="utf-8"?>
<!-- Generator: Adobe Illustrator 26.3.1, SVG Export Plug-In . SVG Version: 6.00 Build 0)  -->
<svg version="1.1" id="Layer_1" xmlns="http://www.w3.org/2000/svg" xmlns:xlink="http://www.w3.org/1999/xlink" x="0px" y="0px"
	 viewBox="0 0 200 200" style="enable-background:new 0 0 200 200;" xml:space="preserve">
<style type="text/css">
	.st0{fill:#E3E3E3;}
</style>
<g>
	<path class="st0" d="M73.2,128.3c0.4-1.3,0.8-2.6,1.1-3.8c0.2-1.3,0.4-2.7,0.4-4.1c0-10.5,0-21.1,0-31.6c0-0.3,0-0.6,0-0.9
		c6.9,0,13.7,0,20.6,0c0,0.3,0,0.6,0,0.8c0,2.2,0,4.4,0,6.7c0,0.5,0.1,0.7,0.7,0.7c3.8,0,7.7,0,11.5,0c0.3,0,0.5,0,0.8,0
		c1.8-0.1,2.4-0.7,2.4-2.5c0-2.5,0-5,0-7.5c0-1.9-0.7-2.5-2.6-2.5c-10.8,0-21.5,0-32.3,0c-0.3,0-0.6,0-1,0c-0.1-3.1-0.2-6.1-1.7-8.9
		c0.3,0,0.5,0,0.8,0c14.7,0,29.3,0,44,0c2.2,0,4.4,0.3,6.6,0.9c4.1,1.2,6.5,4,6.7,8.3c0.1,3.3,0.1,6.5,0,9.8
		c-0.1,2.8-1.7,4.7-4.4,5.7c-2.2,0.8-4.4,1-6.7,1.2c-0.1,0-0.3,0-0.4,0.2c0.8,0.1,1.7,0.2,2.5,0.4c2.1,0.3,4.1,0.6,6,1.5
		c1.8,0.8,2.8,2.3,3,4.2c0.2,2.2,0.1,4.5,0.1,6.8c0,2,0.1,4-0.1,6c-0.4,4.1-2.3,6.7-6.2,8c-2,0.7-4.1,1-6.2,1c-15,0-29.9,0-44.9,0
		C73.5,128.3,73.3,128.3,73.2,128.3z M95.3,105c0,4.8,0,9.6,0,14.4c3,0,5.9,0,8.8,0c1.4,0,2.9,0,4.3-0.1c1.5-0.1,2.1-0.7,2.1-2.2
		c0.1-3.3,0.1-6.6,0-9.9c0-1.5-0.6-2.2-2.2-2.2C104,104.9,99.7,104.9,95.3,105C95.3,104.9,95.3,104.9,95.3,105z"/>
	<path class="st0" d="M128.4,48.5c-1.5,2.8-2.9,5.6-4.4,8.4c-11.7-5.9-23.8-7.3-36.4-3.8c-9.7,2.7-17.8,8-24.4,15.6
		c-13.8,16.1-16.5,40.9-3,60.4c-2.6,1.8-5.2,3.6-7.8,5.4c-13.8-19-15.6-49.2,3.2-71.6C75.5,39.2,107,36.8,128.4,48.5z"/>
	<path class="st0" d="M57.7,138.6c0.8-0.8,1.7-1.5,2.5-2.2c10.9,11.9,24.2,18.4,40.3,18.4c16.1,0.1,29.8-6,40.5-17.9
		c11-12.2,15.5-26.7,13.4-43S144,65,130.5,55.6c0.6-0.9,1.2-1.8,1.8-2.7c14.3,9,27,27.6,25.9,50.8c-1.2,23.6-16.5,42.9-36.6,50.7
		C98.6,163.3,73.3,156.5,57.7,138.6z"/>
</g>
</svg>
