<?xml version="1.0" encoding="utf-8"?>
<!-- Generator: Adobe Illustrator 26.3.1, SVG Export Plug-In . SVG Version: 6.00 Build 0)  -->
<svg version="1.1" id="Layer_1" xmlns="http://www.w3.org/2000/svg" xmlns:xlink="http://www.w3.org/1999/xlink" x="0px" y="0px"
	 viewBox="0 0 200 200" style="enable-background:new 0 0 200 200;" xml:space="preserve">
<style type="text/css">
	.st0{fill:#E3E3E3;}
</style>
<g>
	<path class="st0" d="M117.1,71c4.8,0,9.5,0,14.4,0c-9,26.5-18.1,52.9-27.1,79.5c-6.1-18.1-12.2-36-18.3-54.1
		c-0.5,1.4-0.9,2.6-1.3,3.8c-3.4,10-6.8,20.1-10.2,30.1c-0.2,0.7-0.5,0.9-1.3,0.9c-4.5,0-9,0-13.6,0c-0.3,0-0.6,0-1,0
		c9.1-26.5,18.2-52.8,27.4-79.4c6.1,18.7,12.2,37.2,18.3,56C108.7,95.4,112.9,83.2,117.1,71z"/>
	<path class="st0" d="M150.8,93.8c9.7,0,19.4,0,29.2,0c-1.6,4.5-3.1,8.8-4.6,13.3c-0.4,0-0.7,0-1,0c-9.1,0-18.3,0-27.4,0
		c-0.7,0-0.9,0.2-1.1,0.8c-0.8,2.3-1.6,4.6-2.3,6.8c-0.1,0.3-0.2,0.6-0.3,0.9c13.5,0,26.9,0,40.4,0c-0.5,1.5-1,3-1.5,4.4
		c-1.2,3.5-2.4,7-3.6,10.5c-0.2,0.5-0.4,0.6-0.9,0.6c-18.5,0-37,0-55.5,0c-0.2,0-0.3,0-0.6,0c0.1-0.3,0.1-0.5,0.2-0.7
		c4.6-13.5,9.2-27,13.9-40.5c2.1-6.1,4.2-12.1,6.3-18.2c0.2-0.5,0.4-0.7,0.9-0.7c18.5,0,37.1,0,55.6,0c0.2,0,0.4,0,0.6,0
		c-0.8,2.4-1.6,4.7-2.4,7c-0.5,1.4-1,2.9-1.5,4.3c-0.2,0.6-0.4,0.8-1.1,0.8c-10.5,0-21,0-31.6,0c-2.5,0-5,0-7.5,0
		c-0.3,0-0.7,0.2-0.8,0.4c-1.2,3.3-2.3,6.6-3.4,9.9C150.8,93.6,150.8,93.7,150.8,93.8z"/>
	<path class="st0" d="M46.7,70.4c4.7,0,9.4-0.1,14.1,0c3.8,0.1,6.5,2.6,7.1,6.1c0.3,1.4,0,2.8-0.5,4.2c-2.7,7.5-5.4,15.1-8.1,22.6
		c-1.8,5-3.3,10-5.4,14.9c-2.8,6.7-7.8,11.2-15,12.9c-0.7,0.2-1.5,0.2-2.2,0.2c-8.9,0-17.8,0-26.7,0c-1.6,0-3.3-0.3-4.8-1
		c-3.5-1.6-5-4.9-3.8-8.6c1.6-4.6,3.2-9.1,4.8-13.7c3-8.6,6.1-17.1,9-25.7c1.2-3.4,3.3-5.9,6.2-7.9c4.1-2.8,8.6-4.2,13.6-4.2
		C39,70.3,42.8,70.3,46.7,70.4C46.7,70.3,46.7,70.3,46.7,70.4z M50.7,81.9c-0.5,0-0.8,0-1.1,0c-5.3,0-10.6,0-15.9,0
		c-2,0-2,0-2.7,1.9C26.7,95.9,22.5,108,18.2,120c-0.1,0.2-0.1,0.5-0.2,0.7c0.1,0.1,0.1,0.1,0.1,0.1c6,0,12.1,0,18.1,0
		c0.2,0,0.6-0.3,0.7-0.5c0.4-0.9,0.7-1.8,1-2.8c3.4-9.7,6.9-19.3,10.3-28.9C49.1,86.4,49.9,84.2,50.7,81.9z"/>
</g>
</svg>
