<?xml version="1.0" encoding="utf-8"?>
<!-- Generator: Adobe Illustrator 26.3.1, SVG Export Plug-In . SVG Version: 6.00 Build 0)  -->
<svg version="1.1" id="Layer_1" xmlns="http://www.w3.org/2000/svg" xmlns:xlink="http://www.w3.org/1999/xlink" x="0px" y="0px"
	 viewBox="0 0 200 200" style="enable-background:new 0 0 200 200;" xml:space="preserve">
<style type="text/css">
	.st0{fill:#E3E3E3;}
</style>
<g>
	<path class="st0" d="M18.9,136.8c-5.3,0-10.6,0-15.8,0c0-12.9,0-25.8,0-38.7c0.2,0,0.4,0,0.6,0c15.4,0,30.9,0,46.3,0
		c6.8,0,12.4,4.3,14.2,10.3c2.5,8.3-2.8,17-11.4,18.5c-1,0.2-1.9,0.2-2.9,0.2c-6.1,0-12.2,0-18.3,0c-0.4,0-0.7-0.1-1-0.4
		c-3.7-3.7-7.4-7.4-11.1-11.1c-0.2-0.2-0.4-0.3-0.7-0.6c0,3.7,0,7.3,0,10.9C18.9,129.6,18.9,133.2,18.9,136.8z M18.9,115.1
		c0.2,0,0.4,0,0.5,0c9.4,0,18.7,0,28.1,0c0.3,0,0.6,0,0.9-0.1c1.1-0.4,1.8-1.5,1.7-2.7c-0.2-1.3-1.2-2.1-2.6-2.1
		c-9.3,0-18.7,0-28.1,0c-0.2,0-0.4,0-0.5,0C18.9,111.8,18.9,113.4,18.9,115.1z"/>
	<path class="st0" d="M131.8,98.2c0,4,0,8,0,12c-15.3,0-30.6,0-45.9,0c0,8.9,0,17.8,0,26.6c-5.3,0-10.6,0-15.8,0
		c0-12.9,0-25.7,0-38.6C90.7,98.2,111.2,98.2,131.8,98.2z"/>
	<path class="st0" d="M153.9,124.7c14.6,0,29.2,0,43.8,0c0,4,0,8,0,12.1c-0.2,0-0.5,0-0.7,0c-15.4,0-30.9,0-46.3,0
		c-0.3,0-0.6-0.1-0.8-0.3c-3.8-3.8-7.6-7.6-11.4-11.3c-0.3-0.3-0.4-0.6-0.4-1.1c0-8.4,0-16.9,0-25.3c0-0.2,0-0.4,0-0.6
		c5.3,0,10.5,0,15.8,0C153.9,107,153.9,115.8,153.9,124.7z"/>
	<path class="st0" d="M91.7,72.2c3.1-3.1,6.2-6.2,9.3-9.3c3,3,6.1,6.2,9.2,9.3c-0.1,0-0.3,0.1-0.4,0.1c-3.1,0.8-5.2,3.8-4.9,6.9
		c0.4,3.3,3.1,5.8,6.4,5.9c3.9,0.1,7-3.4,6.6-7.3c0-0.3,0-0.4,0.3-0.6c4.6-1.8,9.2-3.7,13.8-5.6h0.1c0,0.1-0.1,0.2-0.1,0.3
		c-3.2,6.5-6.3,12.9-9.5,19.4c-0.1,0.3-0.3,0.4-0.6,0.4c-13.9,0-27.8,0-41.7,0c-0.3,0-0.4-0.1-0.6-0.3c-2.8-5.8-5.7-11.6-8.5-17.4
		c-0.4-0.8-0.8-1.6-1.2-2.5c1,0.4,1.8,0.7,2.7,1.1c3.7,1.5,7.5,3,11.2,4.5c0.4,0.2,0.4,0.3,0.4,0.7c-0.4,3.5,2.2,6.7,5.7,7.1
		s6.7-2.2,7.1-5.7c0.3-3.3-1.7-6.2-4.9-7C91.9,72.3,91.8,72.2,91.7,72.2z"/>
	<path class="st0" d="M86,115.2c15.3,0,30.5,0,45.8,0c0,4,0,8,0,12c-0.2,0-0.4,0-0.6,0c-10.9,0-21.8,0-32.7,0
		c-0.3,0-0.6-0.1-0.8-0.3c-3.8-3.8-7.6-7.6-11.5-11.4C86.2,115.4,86.1,115.3,86,115.2z"/>
</g>
</svg>
