<?xml version="1.0" encoding="utf-8"?>
<!-- Generator: Adobe Illustrator 27.3.1, SVG Export Plug-In . SVG Version: 6.00 Build 0)  -->
<svg version="1.1" id="Layer_1" xmlns="http://www.w3.org/2000/svg" xmlns:xlink="http://www.w3.org/1999/xlink" x="0px" y="0px"
	 viewBox="0 0 150 150" style="enable-background:new 0 0 150 150;" xml:space="preserve">
<style type="text/css">
	.st0{fill:#E3E2E3;}
	.st1{fill:#B72E3F;}
</style>
<g>
	<path class="st0" d="M56.2,82.4c-1.87-0.08-3.66,0.53-5.5,0.89c-0.81,0.16-1.63,0.32-2.45,0.42c-0.81,0.1-1.57,0.44-2.39,0.5
		c-1.77,0.14-3.46,0.74-5.23,0.9c-1.66,0.15-3.29,0.44-4.92,0.79c-0.94,0.2-1.84-0.15-2.7-0.47c-2.15-0.79-3.46-2.44-4.38-4.45
		c-0.47-1.01-0.68-2.09-0.84-3.2c-0.08-0.55-0.37-1.08-0.61-1.59c-0.26-0.55-0.25-1.07,0.06-1.56c0.98-1.51,2.17-2.82,3.6-3.94
		c1.38-1.08,2.76-2.16,4.23-3.13c0.47-0.31,0.93-0.63,1.42-0.91c1.53-0.87,3.03-1.8,4.49-2.79c0.53-0.36,1.07-0.73,1.51-1.19
		c0.92-0.96,1.96-1.77,2.94-2.66c1.25-1.14,2.58-2.19,3.86-3.3c0.79-0.68,1.54-1.4,2.32-2.08c1.22-1.05,2.49-2.06,3.69-3.14
		c0.82-0.74,1.7-1.42,2.51-2.16c0.93-0.85,1.97-1.55,2.9-2.39c0.63-0.57,1.33-1.07,1.96-1.64c0.9-0.81,1.9-1.5,2.85-2.25
		c0.93-0.74,1.81-1.55,2.79-2.23c2.02-1.42,3.94-2.99,6.05-4.28c0.57-0.35,1.21-0.59,1.82-0.88c0.24-0.11,0.55-0.26,0.7,0
		c0.17,0.3,0.24,0.68-0.1,1c-0.44,0.43-0.84,0.91-1.27,1.35c-0.25,0.25-0.28,0.43-0.01,0.72c0.39,0.42,0.35,0.94-0.07,1.36
		c-0.68,0.68-1.29,1.41-1.9,2.15c-0.18,0.23-0.31,0.48-0.21,0.73c0.29,0.72,0.02,1.35-0.42,1.82c-0.56,0.61-1,1.34-1.67,1.86
		c-0.26,0.2-0.31,0.51-0.2,0.83c0.14,0.43,0.46,0.62,0.87,0.71c0.67,0.14,1.22-0.25,1.73-0.53c0.91-0.5,1.89-0.47,2.85-0.59
		c0.4-0.05,0.52,0.66,0.19,1.18c-0.46,0.72-1.05,1.32-1.61,1.95c-0.95,1.05-2.06,1.92-3.08,2.88c-0.25,0.24-0.48,0.5-0.74,0.73
		c-0.35,0.32-0.4,0.73-0.35,1.16c0.04,0.4-0.09,0.69-0.39,0.96c-2.15,2-4.08,4.22-6.09,6.36c-1.47,1.55-2.95,3.1-4.34,4.73
		c-0.29,0.34-0.29,0.73-0.46,1.08c-0.04,0.08-0.02,0.22,0.08,0.26c0.51,0.18,1,0.51,1.57,0.31c0.98-0.35,2.01-0.48,3.03-0.64
		c0.78-0.12,1.6-0.07,2.35-0.41c0.14-0.06,0.3-0.08,0.45-0.08c2.42-0.05,4.83-0.47,7.25-0.3c1.14,0.08,2.27,0.29,3.34,0.66
		c0.73,0.26,1.23,0.92,1.76,1.48c0.83,0.86,1.39,1.91,1.7,3.03c0.31,1.14,0.71,2.32,0.32,3.54c-0.33,1.03-0.95,1.92-1.58,2.77
		c-1.38,1.85-2.8,3.67-4.52,5.23c-1.28,1.16-2.64,2.24-3.94,3.38c-1.85,1.62-3.88,3.01-5.85,4.46c-2.68,1.98-5.53,3.7-8.21,5.67
		c-1.24,0.91-2.36,1.97-3.56,2.94c-1.62,1.3-3.19,2.65-4.73,4.04c-0.82,0.74-1.64,1.49-2.47,2.23c-1.97,1.76-3.94,3.52-5.86,5.35
		c-0.88,0.84-1.75,1.71-2.68,2.52c-1.45,1.26-2.78,2.66-4.22,3.93c-0.8,0.7-1.5,1.49-2.29,2.19c-1.98,1.74-3.81,3.65-5.72,5.46
		c-1.01,0.95-2.05,1.88-3,2.87c-1.1,1.15-2.25,2.25-3.42,3.33c-1.31,1.21-2.65,2.38-4.08,3.46c-2.3,1.74-4.66,3.38-7.05,5
		c-1.6,1.08-3.25,2.08-5.04,2.83c-0.18,0.08-0.37,0.08-0.54,0.13c-0.37,0.11-0.6-0.05-0.74-0.32c-0.16-0.31,0.1-0.51,0.32-0.67
		c0.68-0.5,1.39-0.96,2.07-1.46c1.58-1.17,3.23-2.23,4.69-3.55c0.97-0.88,2.03-1.65,2.97-2.55c0.68-0.65,1.25-1.43,1.84-2.17
		c0.56-0.71,1.16-1.39,1.54-2.22c0.53-1.15,1.24-2.23,1.3-3.56c0.02-0.46,0.29-0.84,0.69-1.17c0.77-0.64,1.49-1.35,2.15-2.1
		c0.72-0.82,1.39-1.7,2-2.6c0.6-0.88,1.1-1.83,1.41-2.86c0.29-0.95,0.83-1.75,1.44-2.52c0.86-1.1,1.5-2.34,1.94-3.66
		c0.38-1.13,1.23-1.85,2.1-2.55c0.85-0.68,1.68-1.38,2.47-2.12c1.62-1.53,3.37-2.91,4.93-4.51c1.18-1.21,2.39-2.39,3.61-3.56
		c3.54-3.38,6.95-6.9,10.42-10.36c1.26-1.26,2.84-2.09,4.22-3.17c1.19-0.93,2.45-1.77,3.7-2.63c0.29-0.2,0.35-0.48,0.44-0.77
		c0.09-0.3-0.18-0.2-0.28-0.21C57.35,82.36,56.79,82.33,56.2,82.4z"/>
	<path class="st1" d="M102.94,105.98c-0.02-1.45-0.29-2.86-0.89-4.17c-0.39-0.85-0.18-1.61,0.26-2.26c0.46-0.68,0.61-1.28,0.17-1.98
		c-0.58-0.93-0.39-2.01-0.57-3.02c-0.14-0.83-0.22-1.67-0.25-2.51c-0.01-0.47,0.12-0.85,0.38-1.23c0.8-1.17,1.32-2.5,1.97-3.75
		c0.71-1.38,1.11-2.88,1.82-4.26c0.48-0.93,0.77-1.95,1.2-2.91c0.29-0.65,0.03-0.92-0.66-0.77c-1.78,0.38-3.47,1.08-5.19,1.65
		c-1.17,0.38-2.35,0.62-3.58,0.62c-0.74,0-1.17,0.29-1.46,0.97c-0.77,1.78-1.51,3.57-2.42,5.29c-1.09,2.07-2.26,4.11-3.36,6.18
		c-1.29,2.41-2.78,4.69-4.23,6.99c-0.96,1.51-1.9,3.04-3.01,4.46c-0.35,0.45-0.8,0.56-1.26,0.7c-0.3,0.09-0.37-0.21-0.48-0.4
		c-0.16-0.28-0.02-0.52,0.18-0.64c1.58-1,1.66-2.53,1.5-4.16c-0.1-0.94-0.55-1.64-1.33-2.18c-0.39-0.27-0.62-0.78-0.45-1.22
		c0.38-0.99,0.11-1.86-0.27-2.75c-0.8-1.89-0.9-3.82-0.43-5.83c0.29-1.21,0.66-2.39,1.08-3.55c0.61-1.7,1.33-3.37,1.98-5.06
		c0.61-1.59,1.36-3.13,1.95-4.72c0.41-1.08,0.81-2.18,1.3-3.21c0.71-1.5,1.3-3.05,1.98-4.56c0.81-1.78,2.01-3.25,3.34-4.62
		c0.4-0.42,0.74-0.79,0.83-1.36c0.02-0.11,0.07-0.25,0.03-0.34c-0.51-1.08,0.48-1.66,0.83-2.45c0.14-0.31,0.36-0.58,0.52-0.89
		c1.22-2.26,2.65-4.36,4.59-6.07c0.5-0.44,0.96-1.02,1.75-1.01c0.6,0.01,0.94,0.24,1.06,0.86c0.22,1.12,0.67,2.15,1.52,2.94
		c0.88,0.81,1.93,1.18,3.14,0.99c0.51-0.08,0.93,0.26,0.86,0.85c-0.04,0.39-0.03,0.82-0.26,1.16c-0.17,0.26-0.14,0.46,0.06,0.65
		c0.98,0.9,0.79,1.99,0.46,3.06c-0.42,1.34-0.72,2.73-1.43,3.97c-0.21,0.37,0.09,0.82,0.53,0.86c0.56,0.05,1.12,0,1.65-0.16
		c0.88-0.27,1.77-0.49,2.63-0.83c1.62-0.63,2.47-1.81,2.78-3.49c0.13-0.7,0.43-1.38,0.66-2.06c0.46-1.33,1.09-2.59,1.57-3.91
		c0.32-0.88,0.66-1.78,1.09-2.63c0.47-0.94,0.87-1.93,1.25-2.92c0.28-0.75,0.64-1.47,1-2.19c0.57-1.16,1.14-2.32,1.74-3.46
		c0.79-1.5,1.81-2.88,2.48-4.45c0.59-1.39,1.27-2.75,1.83-4.16c0.27-0.69,0.68-1.33,1.01-2c0.4-0.82,0.74-1.68,1.18-2.48
		c0.39-0.7,0.72-1.41,1.06-2.13c0.4-0.86,0.78-1.73,1.2-2.58c0.67-1.36,1.35-2.72,2.03-4.07c0.55-1.09,1.07-2.21,1.69-3.27
		c1.05-1.79,1.86-3.7,2.88-5.49c0.38-0.66,0.83-1.28,1.22-1.94c0.8-1.34,1.64-2.66,2.57-3.92c0.51-0.69,1.14-1.24,1.8-1.78
		c0.27-0.23,0.59-0.13,0.85-0.12c0.23,0.01,0.57,0.27,0.29,0.62c-0.22,0.27-0.13,0.5,0,0.74c0.72,1.37,1.09,2.82,1.01,4.36
		c-0.02,0.44,0.25,0.52,0.57,0.71c0.77,0.46,1.18-0.25,1.73-0.43c0.89-0.3,1.62,0.13,1.66,1.08c0.03,0.66-0.12,1.31-0.3,1.93
		c-0.19,0.64-0.12,1.24,0.03,1.86c0.25,0.99,0.24,1.98-0.13,2.94c-0.86,2.24-1.79,4.44-2.78,6.62c-1.4,3.05-2.88,6.07-4.2,9.16
		c-0.65,1.52-1.48,2.96-2.21,4.44c-1.04,2.11-2.05,4.23-3.09,6.33c-0.85,1.71-1.73,3.4-2.58,5.1c-0.65,1.3-1.28,2.61-1.93,3.9
		c-1.55,3.08-3.1,6.15-4.65,9.22c-1.03,2.04-2.13,4.05-3.1,6.12c-0.74,1.57-1.48,3.15-2.35,4.64c-1.35,2.3-2.37,4.77-3.7,7.07
		c-0.51,0.89-0.98,1.8-1.48,2.7c-0.23,0.41-0.37,0.88-0.51,1.33c-0.42,1.35-1.02,2.63-1.64,3.89c-1.12,2.29-2.23,4.58-3.57,6.75
		c-1.44,2.33-2.85,4.68-4.54,6.85c-0.57,0.73-1.09,1.51-1.63,2.27c-0.08,0.11-0.17,0.2-0.26,0.31c-0.11,0.13-0.26,0.22-0.4,0.18
		c-0.18-0.05-0.14-0.25-0.14-0.4C102.94,106.37,102.94,106.18,102.94,105.98z"/>
</g>
</svg>
