<?xml version="1.0" encoding="utf-8"?>
<!-- Generator: Adobe Illustrator 26.3.1, SVG Export Plug-In . SVG Version: 6.00 Build 0)  -->
<svg version="1.1" id="Layer_1" xmlns="http://www.w3.org/2000/svg" xmlns:xlink="http://www.w3.org/1999/xlink" x="0px" y="0px"
	 viewBox="0 0 200 200" style="enable-background:new 0 0 200 200;" xml:space="preserve">
<style type="text/css">
	.st0{fill:#E3E3E3;}
</style>
<g>
	<path class="st0" d="M41,66.4c-0.1,0.3-0.1,0.6-0.2,0.8c-1.5,5.2-2.9,10.5-4.4,15.8c-1.8,6.6-3.6,13.2-5.5,19.8
		c-0.9,3.1-1.8,6.2-2.6,9.3c-0.4,1.3-0.7,2.5-1,3.8c-0.1,0.5-0.2,1.1,0,1.6c0.2,0.8,0.8,1.5,1.8,1.5c2,0.1,4,0.1,6.1,0.1
		c0.5,0,0.9,0,1.3-0.1c0.4-0.1,0.7-0.2,1.1-0.4c1.1-0.6,1.8-1.6,2.1-2.7c0.7-2.2,1.3-4.5,2-6.8c1.4-5.1,2.8-10.3,4.2-15.4
		c1.9-7,3.9-14,5.8-20.9c0.5-1.9,1-3.7,1.5-5.6c0.1-0.3,0.2-0.6,0.3-0.9c1.2-0.1,2.3-0.1,3.5-0.2c5,0,10.1,0,15.1,0
		c1.1,0,2.2,0,3.4-0.1c0.5,0,0.5,0,1,0.4c-0.4,1.3-0.7,2.6-1.1,3.9c-1.3,4.6-2.5,9.1-3.8,13.7c-2,7.3-4.1,14.7-6.1,22
		c-1.2,4.5-2.5,8.9-3.7,13.4c-0.6,2.2-1.2,4.3-2,6.4c-0.5,1.3-1.2,2.6-2.1,3.8c-1,1.2-2.2,2.1-3.6,2.7c-1.7,0.8-3.4,1.2-5.2,1.4
		c-3.3,0.4-6.6,0.4-9.9,0.4c-4.2,0-8.3,0-12.4,0c-4.1,0-8.1,0-12.2-0.1c-2.2,0-4.5-0.1-6.7-0.5c-1.2-0.2-2.3-0.6-3.4-1.1
		c-1.7-0.9-2.5-2.3-2.6-4.2c0-1.3,0.1-2.6,0.5-3.9c0.8-3.2,1.6-6.3,2.5-9.5c1.5-5.5,3-11,4.5-16.5c1.1-4,2.2-8,3.3-12
		c1.8-6.6,3.6-13.1,5.4-19.7c0.1-0.5,0.5-0.8,1-0.8c1.5,0,3.1,0.1,4.6,0.1c4.7,0,9.4,0,14.1,0C38.7,66.2,39.8,66.3,41,66.4z"/>
	<path class="st0" d="M198.6,66.7c-1.4,4.7-2.7,9.4-4.1,14.1c-0.2,0-0.3,0.1-0.5,0.1c-1.9,0-3.9,0.1-5.9,0.1
		c-5.7,0.1-11.4,0.1-17.1,0.2c-1.4,0-2.8,0.1-4.2,0.4c-1.2,0.3-2,1-2.4,2.2c-0.1,0.2-0.1,0.5-0.2,0.7c-0.8,2.8-1.5,5.6-2.3,8.4
		c-1.9,6.8-3.8,13.6-5.7,20.4c-0.3,0.9-0.5,1.9-0.7,2.9c-0.1,0.3-0.1,0.6-0.1,0.8c-0.1,1.1,0.7,1.8,1.5,1.9c0.6,0.1,1.2,0.2,1.7,0.2
		c2.9,0.1,5.7,0.2,8.6,0.2c5.6,0.1,11.3,0.2,16.9,0.2c0.4,0,0.8,0.1,1.2,0.1c-0.1,0.4-0.1,0.7-0.2,1c-1,3.8-2.1,7.5-3.1,11.3
		c-0.2,0.8-0.4,1.5-0.6,2.2c-0.2,0-0.3,0-0.5,0c-7.8,0-15.6,0-23.4-0.1c-3.3,0-6.6-0.1-9.9-0.1c-1.7,0-3.5-0.1-5.2-0.2
		c-2.6-0.1-5-0.8-7.1-2.2c-1.1-0.8-2.1-1.7-2.8-2.9c-1-1.6-1.2-3.2-0.8-5c0.5-2.1,0.9-4.1,1.4-6.1c2.4-8.7,4.9-17.4,7.3-26.2
		c1.3-4.8,2.6-9.5,4-14.3c0.4-1.4,0.9-2.8,1.5-4.1c1.4-2.8,3.5-4.6,6.4-5.5c1.9-0.6,3.9-0.9,5.8-1.1c4-0.2,8-0.3,12-0.3
		c5.2,0,10.4,0,15.6,0c3,0,6,0.1,9,0.2c1,0,2,0.1,3.1,0.2C198.1,66.6,198.3,66.6,198.6,66.7z"/>
	<path class="st0" d="M130.5,91c-1.4,5.1-2.8,10.1-4.3,15.1c-8.9,0-17.8,0-26.8,0c-2.6,9.3-5.3,18.6-7.9,27.9c-7.6,0-15.2,0-22.8,0
		c0-0.4,11.8-42.4,12.1-43C97.4,91,113.9,91,130.5,91z"/>
	<path class="st0" d="M83.7,81c0.1-0.4,0.2-0.9,0.3-1.3c1.3-4.5,2.6-9,3.8-13.5c0.2-0.5,0.2-0.5,0.7-0.5c16.2,0,32.3,0,48.5,0
		c0.2,0,0.3,0,0.6,0c-0.7,2.6-1.4,5.2-2.2,7.7c-0.7,2.5-1.4,5.1-2.2,7.6C116.8,81,100.2,81,83.7,81z"/>
</g>
</svg>
